<svg id="Layer_1" data-name="Layer 1" xmlns="http://www.w3.org/2000/svg" viewBox="0 0 611.98 259.59"><path d="M323.83,15.71C308.47,14.23,272.54-.06,262.15,0c-9,.05-30.71,20.5-40.42,19.16s-36.28,5.34-46.55,5-28.34-12-42.52-11.3-15.3,12.37-26.24,12.83S88.58,40.87,80.75,40.8s-15-7.54-22.44-7.92S49,27.22,46.08,28.27C42.63,29.53,41,26.35,39,26.54c-4.16.39-6.4,7.53-11.82,8.75C20.59,36.78,0,49.22,0,49.22V168.56l611.88,0,0-94.46s-9.28-1.34-13.79-3.26S574.58,56.52,569,54.6,522.7,44.21,518.64,44.06,483.69,48.64,473.82,46s-41.4-17.43-50.57-18.59-35.7.68-43.1-1.14c-4.43-1.09-15.09-12.7-16.67-13.41C351,7.21,330.87,16.39,323.83,15.71Z" fill="#c0e3d9"/><polygon points="156.67 91.37 135.6 162.64 117.4 151.72 145.75 86.01 177.36 44.05 156.67 91.37" fill="#d2ebe3"/><polygon points="221.62 79.74 214.91 121.26 236.36 168.19 217.4 168.57 200.16 119.34 209.45 79.81 191.57 31.57 221.62 79.74" fill="#d2ebe3"/><polygon points="253.15 88.35 281.74 113.24 288.03 140.68 310.33 169.15 291.77 168.64 274.11 145.46 271.12 120.4 240.9 94.83 231.77 33.29 253.15 88.35" fill="#d2ebe3"/><polygon points="281.76 53.2 264.42 106.23 256.36 96.38 276.81 48.2 296.63 18.53 281.76 53.2" fill="#d2ebe3"/><polygon points="345.34 54.08 344.59 93.13 371.99 117.1 379.64 164.53 359.27 169.21 355.94 120.69 331.98 96.81 335.33 56.16 320.12 26.64 345.34 54.08" fill="#d2ebe3"/><polygon points="390.87 86.15 408.14 109.89 425.8 166.55 407.25 165.94 396.6 116.53 379.64 87.06 392.44 50.16 390.87 86.15" fill="#d2ebe3"/><polygon points="430.54 90.98 413.79 102.72 405.24 126.01 398.32 119.6 409.17 96.99 426.16 86.81 436.44 64.31 430.54 90.98" fill="#d2ebe3"/><polygon points="467.51 106.62 485.3 150.18 499.18 168.21 485.73 168.21 473.37 152.06 462.74 110.09 442.77 84.89 467.51 106.62" fill="#d2ebe3"/><polygon points="45.49 110.08 23.52 129.08 18.68 150.03 1.54 171.76 15.81 171.37 29.38 153.67 31.68 134.54 54.91 115.03 61.93 68.05 45.49 110.08" fill="#d2ebe3"/><polygon points="21.5 83.24 34.83 123.73 41.02 116.21 25.3 79.43 10.08 56.77 21.5 83.24" fill="#d2ebe3"/><polygon points="90.48 77.86 89.73 116.91 117.13 140.88 124.77 188.31 104.41 192.99 101.08 144.47 77.11 120.59 80.47 79.94 65.26 50.42 90.48 77.86" fill="#d2ebe3"/><polygon points="547.5 92.09 548.44 124.43 572.59 184.42 589.38 170.39 563.92 121.54 558.59 84.67 520.28 63.3 547.5 92.09" fill="#d2ebe3"/><polygon points="514.09 125.01 538.06 122.57 562.67 135.72 564.51 125.34 538.25 114.44 515.18 118.35 489.53 107.13 514.09 125.01" fill="#d2ebe3"/><path d="M150.43,170.39H119.62s-19.53-14.17-11.6-15.76c7.74-1.56,8.59-6.51,8.59-6.51s-10.89-8.58-5.84-10.14c8.93-2.77,13.72-22.31,13.72-22.31s-12.94-2.46-10-4.36c9.78-6.25,14.74-20.74,14.74-20.74s-8.94-2.76-5.35-3.8c6.45-1.86,10-18.38,10-18.38s3.75,14.84,11.09,17.69c3.11,1.21-5.36,2.07-5.36,2.07s5.94,19,12.79,20.4c4.5.91-9.08,9.59-9.08,9.59s3.42,18.92,15.48,21.17c3,.55-7.45,9.51-7.45,9.51s-.05,4,10.57,7.22C166,157.25,150.43,170.39,150.43,170.39Z" fill="#789c91"/><path d="M174.84,169.17h32.48s18-10.12,14.46-11.45a37.57,37.57,0,0,1-15.56-11.11s11.54-7.83,7.11-8.89c-8.16-1.95-12.44-12-12.44-12s12-10,6.67-12c-9.42-3.46-9.78-19.11-9.78-19.11s9.8-5.18,6.66-7.56c-10.31-7.82-7.3-17.78-7.3-17.78s9.43-3.46,5.65-4.76c-6.81-2.33-10.59-23-10.59-23s-3.95,18.58-11.69,22.15c-3.28,1.51,5.65,2.59,5.65,2.59s-1.27,17.26-10.6,20.81c-4.57,1.74,7.11,8,7.11,8s-.33,16.13-12.89,19.56c-4.89,1.33,9.78,15.55,9.78,15.55s-11,22.22-22.23,26.23C153.1,157.9,174.84,169.17,174.84,169.17Z" fill="#789c91"/><path d="M350.57,167.7H328.75s-13.83-11.26-8.22-12.53,11.06-15.49,11.06-15.49-10.52-5.41-6.94-6.65c6.32-2.2,9.54-10.27,9.54-10.27s-8.31-4-5.74-4.86c6.21-2,7.5-10.84,7.5-10.84s-8.86-.8-4.94-2.8c4.29-2.19,7.95-14,7.95-14s2.05,11.19,8.82,16.63c2.59,2.09-6.2,1.79-6.2,1.79s3.18,7.66,8,9c3.76,1.09-6,4.36-6,4.36s.55,8.61,9.09,10.39c2.11.44-7.43,8.95-7.43,8.95s6,12.38,13.51,14.92C361.61,157.26,350.57,167.7,350.57,167.7Z" fill="#789c91"/><path d="M405,166.5H375.62s-13-10.83-8.57-11.05c6.93-.34,10.62-8.89,10.62-8.89s-14.62-14.3-11.18-14.14c9.82.45,11.16-8,11.16-8s-10.26-9.09-5.07-9.32C382.4,114.62,383,95.78,383,95.78s-11.19-6.34-7.74-7.65c8.37-3.19,10.1-17.07,10.1-17.07s-11.92-1.26-6.65-4.41c5.78-3.44,10.71-22.07,10.71-22.07s2.76,17.6,11.88,26.17c3.49,3.28-8.34,2.81-8.34,2.81s4.27,12.06,10.71,14.22c5.06,1.71-8,6.86-8,6.86s1.65,19.38,13.15,22.18c2.84.7-11.21,13.91-11.21,13.91s1.75,8.89,14.72,11.28c3.66.67-8.67,8.67-8.67,8.67s3.9,9.33,10.84,8.89C419.08,159.28,405,166.5,405,166.5Z" fill="#789c91"/><path d="M457.3,165.79H426.5S407,151.62,414.89,150c7.74-1.55,8.59-6.5,8.59-6.5s-10.89-8.58-5.84-10.14c8.93-2.77,13.72-22.32,13.72-22.32s-12.94-2.45-10-4.35C431.18,100.46,436.14,86,436.14,86s-8.94-2.77-5.35-3.8c6.46-1.87,10-18.39,10-18.39s3.75,14.85,11.09,17.7c3.11,1.2-5.36,2.07-5.36,2.07s5.94,19,12.79,20.39c4.5.91-9.08,9.6-9.08,9.6s3.42,18.92,15.48,21.17c3,.55-7.44,9.5-7.44,9.5s-.06,4,10.57,7.23C472.89,152.65,457.3,165.79,457.3,165.79Z" fill="#789c91"/><path d="M515,170.53h30.27s13.41-9.77,8.83-10c-7.14-.3-10.95-8-10.95-8s15.07-12.9,11.52-12.76c-10.12.4-13.82-9.74-13.82-9.74s13-9.43,7.67-9.65c-10.12-.4-10.8-13.67-10.8-13.67S549.51,98,546,96.79c-8.63-2.87-10.71-12.38-10.71-12.38s12.29-1.13,6.85-4c-5.94-3.11-10.17-12-10.17-12s-1.15,6.8-9.32,13.59c-3.59,3,6.14,1.81,6.14,1.81S523,97.55,516.39,99.5c-5.22,1.54,8.25,6.19,8.25,6.19s-1.19,14.52-13,17c-2.92.63,8.31,9.91,8.31,9.91s1.65,7.6-11.71,9.76c-3.77.6,8.21,13.85,8.21,13.85s-1.93,3.6-9.08,3.21C502.56,159.2,515,170.53,515,170.53Z" fill="#789c91"/><rect x="0.02" y="167.61" width="611.96" height="91.98" fill="#8ebfb3"/><path d="M186.92,108.47c-2.83-1.42-7,12.68-29,15.51a.83.83,0,0,1-.51-.08c-8.64-4.32-26.41-8.33-38.19-8.46-8.1-.09-21.47,2.07-32.82-.38S63.78,90.48,47.51,90.37c-8.51-.06-17.24,13.49-16,14.21,2.69,1.57,6.33,4.63,6.2,6.16-.19,2.14-3.64.45-3.56.84.34,1.75,7.84,7.93,12.2,12.82,12.18,14.85,15.12,36.1,15.11,36,1.71,8.9,9.6,16.29,9.6,16.29s-4.93,18.51,12.64,9.09c8,3.91,17.76,5.93,28.93,5.87s19.27-1.34,25.55-3.75c2.25,1,19.11,7.76,13.62-9.82,3.26-4.06,8-13.86,9.19-16.5a1.82,1.82,0,0,1,1-.94C189.42,150.06,189.75,109.88,186.92,108.47Z" fill="#fff"/><path d="M112.13,192.17c-10.85,0-20.42-2-28.43-5.81-5.38,2.84-9.26,3.36-11.55,1.55-3.4-2.69-2-9.53-1.65-11-1.31-1.28-8-8.12-9.54-16.35v0c-.05-.39-3-21.13-15-35.76-1.78-2-4.17-4.29-6.28-6.31-3.7-3.55-5.8-5.61-6-6.73a.57.57,0,0,1,.15-.5c.25-.24.56-.17,1.11,0s1.63.37,2.06,0a.6.6,0,0,0,.23-.49c.09-1.07-2.85-3.88-6-5.68-.36-.21-.45-.64-.28-1.27.79-2.89,8.56-13.88,16.49-13.88h.06c9.56.06,17.45,7.61,24.42,14.26C77,109,81.82,113.56,86.5,114.57c7.87,1.7,16.89,1.15,24.15.71,3.15-.19,6.11-.38,8.57-.34,11.65.13,29.6,4.1,38.41,8.51a.45.45,0,0,0,.23,0c14.88-1.92,21.52-9.06,25.09-12.9,1.85-2,3-3.19,4.19-2.57s1.57,5.46,1.38,9.38c-.76,15.76-8.11,36.68-26.35,43.73a1.37,1.37,0,0,0-.74.68c-1.32,2.82-5.83,12.21-9.09,16.39,1.61,5.27,1.34,8.91-.78,10.83-3.61,3.24-11.42.27-13.4-.57-6.46,2.44-14.82,3.65-25.54,3.71ZM83.69,185.3a.42.42,0,0,1,.22,0c7.92,3.86,17.41,5.82,28.22,5.82h.48c10.71-.06,19-1.27,25.38-3.71a.43.43,0,0,1,.37,0c.93.4,9.17,3.83,12.53.81,1.84-1.65,2-5,.42-10a.5.5,0,0,1,.09-.47c3.2-4,7.79-13.56,9.13-16.4a2.32,2.32,0,0,1,1.28-1.18c20.46-7.91,24.63-32.07,25.43-39.29s.06-11.59-.55-12-1.64.89-3,2.36C180,115.2,173.23,122.52,158,124.48a1.34,1.34,0,0,1-.81-.14c-8.7-4.35-26.44-8.28-38-8.4-2.42,0-5.37.15-8.5.34-7.31.44-16.42,1-24.42-.73-5-1.07-9.85-5.75-15-10.7-6.83-6.52-14.58-13.92-23.74-14h0c-5,0-9.73,4.91-11.56,7-2.62,3-4,5.65-4,6.34,2.15,1.28,6.49,4.55,6.32,6.56a1.59,1.59,0,0,1-.64,1.21,3.26,3.26,0,0,1-2.55.18,59.88,59.88,0,0,0,5.36,5.51c2.12,2,4.52,4.33,6.34,6.38,11.21,13.66,15,33.45,15.17,36.27h.06c1.65,8.62,9.38,15.94,9.45,16a.48.48,0,0,1,.14.49c0,.08-2,7.73,1.24,10.29,2,1.57,5.57,1,10.68-1.76A.53.53,0,0,1,83.69,185.3Z" fill="#221f1f"/><path d="M58.6,199.94l0,1.18a10.79,10.79,0,0,0-2.76-1.8L53,198c-.37-.07-.64.32-.72.7l-.09,2.94a2.66,2.66,0,0,0,0,.69s0,3.18,0,3.34l.72,2-1.54-.64c-.75-.36-.78-.95-.86-1.57l-.43-3a2,2,0,0,1,0-.6l.32-4.32-3.72,3.7a1.54,1.54,0,0,0-.46.72s-.9,3.17-1.1,3.93l0,.3L45,207.67s-1.42-1.86-1-3.37l.37-3.26a7.18,7.18,0,0,1,1-1.65,49.06,49.06,0,0,1,4.75-4.31c1.58-.91,21.14-9,21.14-9a12.58,12.58,0,0,1,1.82,1.85l-19.21,7.8c-.32.13-.4.83-.07.91l2.62.83A3,3,0,0,1,58.6,199.94Z" fill="#c6a231"/><path d="M45.48,209.08,44.64,208c-.07-.08-1.56-2.07-1.08-3.8l.35-3.18A6.73,6.73,0,0,1,45,199a45.53,45.53,0,0,1,4.84-4.38c1.59-.91,20.4-8.71,21.2-9.05l.28-.11.23.19a13.14,13.14,0,0,1,1.9,1.94l.39.52-19.81,8.05s0,0,0,0l2.49.78a3.46,3.46,0,0,1,2.53,2.89v0l-.06,2.3-.81-.72a10.29,10.29,0,0,0-2.59-1.7l-2.75-1.27a.87.87,0,0,0-.13.3l-.08,2.85a3.43,3.43,0,0,0,0,.6c0,1.5,0,3.09,0,3.31l1.09,3-2.58-1.07a2,2,0,0,1-1.15-1.85l-.44-3.15a2.36,2.36,0,0,1,0-.75l.21-2.95-2.77,2.77a1,1,0,0,0-.33.49s-.89,3.18-1.09,3.93l0,.25ZM51,196.25l-.42,5.66a1.6,1.6,0,0,0,0,.49l.44,3.16c.07.59.13.85.57,1.06l.47.2-.34-1c0-.08-.1-.23-.07-3.52a3,3,0,0,1,0-.78l.08-2.85c.17-.84.72-1.29,1.32-1.18l.11,0L56,198.87a8.12,8.12,0,0,1,2.07,1.22V200a2.45,2.45,0,0,0-1.81-2l-2.65-.83a.79.79,0,0,1-.55-.77,1.09,1.09,0,0,1,.59-1.08l18.57-7.54a13.72,13.72,0,0,0-1.08-1.07c-6.83,2.83-19.59,8.17-20.8,8.87a45.13,45.13,0,0,0-4.64,4.22,7.13,7.13,0,0,0-.84,1.44l-.36,3.18a2.69,2.69,0,0,0,.12,1.48h0c.21-.81,1.11-4,1.11-4a2,2,0,0,1,.61-1Zm2.91-.1h0Z" fill="#221f1f"/><path d="M34.62,111.62c-5.42-.79-11.15,1.12-12,.85-1.75-.55,6.28-8.75,9.11-7.64S41.81,112.66,34.62,111.62Z" fill="#c6a231"/><path d="M22.85,113a1.12,1.12,0,0,1-.39,0,.83.83,0,0,1-.58-.63c-.25-1.24,2.3-3.91,4.08-5.39,1.48-1.25,4.22-3.23,5.95-2.56,2,.8,6.79,4.7,6.25,6.73-.39,1.49-2.82,1.14-3.61,1h0a30.55,30.55,0,0,0-9.6.58A14.37,14.37,0,0,1,22.85,113Zm8.27-7.77a7.62,7.62,0,0,0-3.76,1.85c-2.56,2-4.32,4.22-4.48,4.92a16.94,16.94,0,0,0,1.89-.28,31.51,31.51,0,0,1,9.92-.59c1.72.25,2.43,0,2.5-.28.31-1.16-3.54-4.72-5.65-5.54A1.08,1.08,0,0,0,31.12,105.22Z" fill="#221f1f"/><path d="M61.41,95.49C52.88,89.23,44.5,88.61,38,94.57c-1.13,1,3.61-16.18,7.65-10.33,2.66,3.84,5.46-6.26,8.6-1,3.67,6.11,4.82,3.14,8.39,3C68.5,86.08,62.39,96.22,61.41,95.49Z" fill="#8c244c"/><path d="M61.52,96a.74.74,0,0,1-.41-.13h0c-8.53-6.27-16.62-6.61-22.78-1a.59.59,0,0,1-.67.12c-.41-.21-.35-.76-.31-1,.22-2,2.76-10.61,6-11.42.69-.18,1.72-.08,2.71,1.36a1.37,1.37,0,0,0,.87.68c.64.05,1.44-.75,2.22-1.52,1-1,2.1-2.09,3.37-1.93a3.16,3.16,0,0,1,2.16,1.76c2.49,4.15,3.57,3.82,5.38,3.29a9.32,9.32,0,0,1,2.57-.49c1.88,0,2.59.87,2.85,1.64.9,2.61-1.93,7.4-3.28,8.39A1.12,1.12,0,0,1,61.52,96Zm.18-.94ZM48.19,89.92c4.2,0,8.73,1.69,13.38,5.07.82-.51,3.44-4.67,3-7-.1-.57-.42-1.34-2-1.28a8.31,8.31,0,0,0-2.31.45c-2.25.66-3.77.84-6.52-3.73-.48-.79-1-1.23-1.42-1.29-.79-.09-1.68.79-2.55,1.65s-1.92,1.91-3,1.8a2.23,2.23,0,0,1-1.6-1.1c-.79-1.15-1.42-1.07-1.82-.91-2.31.93-4.49,7.43-5,9.92A15.08,15.08,0,0,1,48.19,89.92Z" fill="#221f1f"/><path d="M169.45,195.05l1.09-.44a10.86,10.86,0,0,0-.55,3.25l-.08,3.09c.09.38.55.46.93.39l2.74-1.09a2.37,2.37,0,0,0,.64-.25s2.93-1.23,3.05-1.36l1.57-1.47,0,1.67c0,.83-.57,1.09-1.1,1.41l-2.62,1.6a2.21,2.21,0,0,1-.55.23l-4.09,1.43,4.88,1.94a1.45,1.45,0,0,0,.84.14s3.27-.44,4-.56l.29-.07,1.38-.53s-1.15,2-2.7,2.25l-3.13,1a7.17,7.17,0,0,1-1.9-.23,47.6,47.6,0,0,1-5.85-2.65c-1.45-1.08-16.67-15.81-16.67-15.81a12.72,12.72,0,0,1,1-2.41l14.79,14.53c.25.24.92,0,.87-.29l-.29-2.73A3,3,0,0,1,169.45,195.05Z" fill="#c6a231"/><path d="M175.92,208.13a7,7,0,0,1-1.91-.26,47.64,47.64,0,0,1-5.94-2.7c-1.47-1.09-16.1-15.26-16.73-15.86l-.21-.21.08-.29a13.23,13.23,0,0,1,1-2.51l.32-.57,15.26,15a0,0,0,0,1,0,0l-.27-2.59a3.45,3.45,0,0,1,1.64-3.48l.07,0,2.1-.85-.34,1a10.28,10.28,0,0,0-.53,3l-.07,3a.81.81,0,0,0,.32,0l2.65-1.06a2.09,2.09,0,0,0,.56-.22c1.38-.58,2.84-1.22,3-1.34l2.35-2.2,0,2.8a2,2,0,0,1-1.23,1.79l-2.72,1.65a2.43,2.43,0,0,1-.68.3l-2.79,1,3.63,1.45a1.07,1.07,0,0,0,.59.11h0s3.27-.44,4-.56l.24-.07,2.62-1-.69,1.21c-.05.1-1.28,2.26-3.05,2.51l-3.07.94Zm-23.66-19.32c5.31,5.14,15.28,14.72,16.4,15.55a45.08,45.08,0,0,0,5.73,2.59,7.52,7.52,0,0,0,1.65.19l3.06-.94a2.64,2.64,0,0,0,1.32-.69h0c-.83.13-4.11.57-4.11.57a2,2,0,0,1-1.12-.19l-6.09-2.42,5.35-1.87a1.63,1.63,0,0,0,.46-.19l2.73-1.66c.5-.3.73-.46.74-.94v-.52l-.75.7a17.92,17.92,0,0,1-3.2,1.46,2.71,2.71,0,0,1-.73.28L171,201.8c-.83.18-1.47-.14-1.6-.74l0-.06.08-3.15a8.65,8.65,0,0,1,.29-2.39l-.1,0a2.46,2.46,0,0,0-1.14,2.47l.29,2.76a.81.81,0,0,1-.49.81,1.09,1.09,0,0,1-1.23-.11l-14.3-14.05A15.19,15.19,0,0,0,152.26,188.81Zm15.57,12v0Z" fill="#221f1f"/><path d="M293.31,167.64l-2.07-3.81-133.5-40.3s-2.11-1-4.17-1.83a40,40,0,0,0-4-1.4s-17.12,22-17.12,22l-21.53-27-6,.33-23.62,30.2L69,129.89s13.47-17,13.44-17a38,38,0,0,1-4.25-3.09L54.61,139.12,57,145l8.6-10.7,36.69,46.92-7.1,9.15s3.13.72,5.6,1c0,0,41-52.08,51.76-65.81Zm-187.67,9.17L84.76,150.1l23.48-30.17,20.87,26.69Z" fill="#38675d"/><path d="M78.29,111.18c.61.49,1.53,1.19,2.64,1.93-2,2.57-8.34,10.59-12.76,16.16l-.49.62.48.62L80.59,146.4l.78,1,.79-1,23.35-29.85,5-.27,21.21,26.61.79,1,.78-1L150,121.45c.65.21,1.74.58,3.22,1.17,2,.8,4.09,1.8,4.11,1.81l.07,0,.07,0,133.11,40.18.71,1.32L152.79,124.62l-.65-.19-.42.54c-10.7,13.6-47.46,60.38-51.4,65.35-1.18-.18-2.46-.42-3.42-.62l6.13-7.89.48-.62-.48-.61L66.34,133.65l-.78-1-.79,1L57.24,143l-1.49-3.72,22.54-28.11m27.36,67.26.78-1,23.47-30.19.48-.62-.48-.61L109,119.32l-.78-1-.79,1L84,149.49l-.48.62.48.61,20.89,26.71.79,1M78.14,109.77,54.61,139.12,57,145l8.6-10.7,36.69,46.92-7.1,9.15s3.13.72,5.6,1c0,0,41-52.08,51.76-65.81l140.81,42.06-2.07-3.81-133.5-40.3s-2.11-1-4.17-1.83a40,40,0,0,0-4-1.4s-17.12,22-17.12,22l-21.53-27-6,.33-23.62,30.2L69,129.89s13.47-17,13.44-17a38,38,0,0,1-4.25-3.09Zm27.5,67L84.76,150.1l23.48-30.17,20.87,26.69-23.47,30.19Z" fill="#221f1f"/><path d="M478.52,199.31V85.05l21-28a1.62,1.62,0,0,0-.33-2.27l-2.89-2.17a1.9,1.9,0,0,0-2.67.39L470.08,84.4c-55,42.45-109.72,59.68-177.51,60.48l-16.75-7.67a1.87,1.87,0,0,0-2.51,1l-1.15,3a2,2,0,0,0,1,2.51l12.14,5.54c18.29,55.76,65.19,56.34,65.19,56.34l158.64-.46a1.58,1.58,0,0,0,1.56-1.57V201a1.68,1.68,0,0,0-1.68-1.68ZM382.1,171.53h22.75l-13.78,18.41-9-4.11Zm-6.88,11.16-24.39-11.16h24.39Zm19.47,16.62H382.1v-5.76Zm3-6.33,16.06-21.45h58v27.78H411.55Zm74-29.22H419.59l52.14-69.63ZM455.38,104l-44.71,59.73H333.85l-26.69-12.21C360.29,149.78,408.93,134.43,455.38,104ZM293.46,153l23.47,10.73H298.88A95.82,95.82,0,0,1,293.46,153ZM304,171.53h29.88l41.3,18.88v8.9H351.76S324.45,198.85,304,171.53Z" fill="#c6a231"/><path d="M350.52,206.15c-.12,0-12-.23-26-7.32-12.84-6.51-30.12-20.33-39.64-49.15L273,144.22a2.5,2.5,0,0,1-1.29-3.14l1.15-3a2.39,2.39,0,0,1,1.31-1.34,2.34,2.34,0,0,1,1.87,0l16.66,7.62c69.4-.84,124-19.45,177-60.33l23.49-31.37a2.36,2.36,0,0,1,1.58-.94,2.43,2.43,0,0,1,1.79.45l2.89,2.16a2.15,2.15,0,0,1,.83,1.41,2.1,2.1,0,0,1-.4,1.57L479,85.21v113.6h30a2.18,2.18,0,0,1,2.18,2.18v2.63a2.08,2.08,0,0,1-2.06,2.07ZM275,137.54a1.34,1.34,0,0,0-.51.11,1.3,1.3,0,0,0-.75.77l-1.15,3a1.48,1.48,0,0,0,.77,1.87L285.74,149l.06.21c18,54.78,64.26,56,64.73,56l158.63-.46a1.08,1.08,0,0,0,1.06-1.07V201a1.18,1.18,0,0,0-1.18-1.18H478V84.88L499.1,56.73a1.11,1.11,0,0,0,.21-.83,1.1,1.1,0,0,0-.44-.74L496,53a1.39,1.39,0,0,0-1.05-.26,1.37,1.37,0,0,0-.92.55L470.39,84.8c-53.26,41.07-108.1,59.76-177.81,60.58h-.12l-.1,0-16.75-7.66A1.25,1.25,0,0,0,275,137.54Zm197.19,62.27-60.89-.05L397,193.18,413.53,171h58.7Zm-60.57-1h59.57V172H414l-15.54,20.75Zm-14.68,1H381.6v-7Zm-14.38-1h9.79l-9.79-4.48Zm-6.88,1h-24c-.28,0-27.8-.78-48.12-28l-.6-.8,31.09,0,41.59,19ZM305,172c20,26,46.46,26.77,46.73,26.78h23v-8.08L333.81,172Zm86.19,18.53-9.63-4.41V171h24.25Zm-8.63-5.05,8.31,3.81L403.86,172H382.6Zm-6.88-2L348.53,171h27.19ZM353.12,172l21.6,9.88V172Zm119.11-7.77H418.6l53.63-71.63Zm-51.64-1h50.64V95.63Zm-9.67,1-77.28,0L305,151.12l2.12-.07c53.51-1.78,101.91-17.3,148-47.44l2.38-1.55Zm-77-1h76.46L453.3,106c-44.9,28.85-92.06,43.91-144,46Zm-14.73,1H298.59l-.14-.24A97.13,97.13,0,0,1,293,153.23l-.52-1.19Zm-20.06-1h15.47L294.44,154A95,95,0,0,0,299.17,163.26Z" fill="#221f1f"/><path d="M563.16,96.64c-2.93-11.42,6.78-18.79,15.27-14.65s6.42,16.93.81,19.89c-12.52,6.63-79.36,9.69-79.36,9.69V108s68.71-3.27,76.92-9.15c4.78-3.42,5.83-11.5-.38-13.83-7.55-2.84-11.49,6.29-9.54,12.74C567.11,98.53,563.38,97.52,563.16,96.64Z" fill="#38675d"/><path d="M499.38,112.1v-4.57l.47,0c.69,0,68.66-3.33,76.66-9.06a9,9,0,0,0,3.66-8.1,6.34,6.34,0,0,0-10.36-3.78c-2.57,2.41-3.63,7.17-2.45,11.06a.66.66,0,0,1-.15.66c-.11.12-.46.47-2,.06-.54-.14-2.3-.67-2.53-1.57h0c-1.44-5.6,0-10.82,3.83-14a11.22,11.22,0,0,1,12.14-1.28c3.71,1.81,5.89,5.47,6,10.06s-2,9.08-5.13,10.73c-12.48,6.6-76.85,9.62-79.58,9.74Zm1-3.62v2.57c6.29-.31,66.93-3.42,78.63-9.61,2.74-1.45,4.67-5.58,4.6-9.82s-2-7.55-5.4-9.18a10.21,10.21,0,0,0-11.06,1.16c-3.53,2.87-4.84,7.7-3.51,12.91a5.3,5.3,0,0,0,2.66,1c-1.11-4.16.08-9.13,2.83-11.71a6.89,6.89,0,0,1,7.47-1.28,6.79,6.79,0,0,1,4.56,5.66,10,10,0,0,1-4.06,9C569.12,105,507,108.15,500.38,108.48Z" fill="#221f1f"/><path d="M548.32,137.65c-5.85-10.24,6.43-15.57,12.14-10.88,4.2,3.45,7.87,14.18-4,19.84-8,3.82-55.62-3.16-55.62-3.16l.39-3.67s46.55,5.86,54.33,3.19c7.29-2.51,6.43-12.72,1.06-14.26-6.31-1.81-7.77,5.1-5,8.17C552.17,137.47,548.77,138.44,548.32,137.65Z" fill="#38675d"/><path d="M546.52,148.25c-16.22,0-44.28-4.08-45.8-4.3l-.47-.07.5-4.66.51.07c.46.06,46.51,5.81,54.1,3.21a7.28,7.28,0,0,0,4.93-7.31c-.07-2.95-1.62-5.36-3.84-6s-4.06-.15-5,1.41a5.23,5.23,0,0,0,.57,6,.68.68,0,0,1,.14.73c-.3.75-2,1.11-2.68,1.16s-1.34-.13-1.57-.54c-2.46-4.3-2.06-8.45,1.08-11.1,3.35-2.83,8.64-3,11.81-.42a12.7,12.7,0,0,1,4.12,10.71c-.36,2.93-2.08,7-8.27,10C554.83,147.92,551.16,148.25,546.52,148.25ZM501.34,143c5,.71,47.47,6.64,54.86,3.13,4.57-2.17,7.24-5.35,7.71-9.19a11.67,11.67,0,0,0-3.77-9.82c-2.81-2.3-7.53-2.12-10.52.41-2.78,2.34-3.1,5.92-.88,9.82a4,4,0,0,0,2.33-.38,6.21,6.21,0,0,1-.49-6.92c1.2-2,3.44-2.62,6.14-1.85s4.49,3.54,4.57,6.93a8.24,8.24,0,0,1-5.61,8.28c-7.45,2.57-48.72-2.44-54-3.1Zm47.41-5.63h0Zm0,0Z" fill="#221f1f"/><path d="M562.07,164.76c5.17-10,17.5-9.6,22.27-1.72,4,6.68.9,20.31-7.48,22.63-13.53,3.73-77.86-5-77.86-5l.64-3.51s68.2,9,77.33,4.64c5.3-2.51,7.72-13.75,3.83-17.72a10.15,10.15,0,0,0-16.73,3.77C563.77,168.56,561.65,165.56,562.07,164.76Z" fill="#38675d"/><path d="M565.55,187.1c-22.51,0-64.46-5.67-66.61-6l-.52-.07.81-4.5.47.06c.68.09,68.16,8.91,77.06,4.69,2.44-1.16,4.48-4.53,5.21-8.58.63-3.54,0-6.74-1.53-8.34a9.9,9.9,0,0,0-8.81-2.61,9.69,9.69,0,0,0-7.1,6.22.64.64,0,0,1-.54.42c-.46,0-1-.37-1.59-1.27-.37-.53-1.18-1.86-.78-2.63h0a13.68,13.68,0,0,1,11.78-7.84,12.84,12.84,0,0,1,11.37,6.09c2.3,3.8,2.44,9.89.35,15.14-1.72,4.34-4.61,7.26-8.13,8.23A49,49,0,0,1,565.55,187.1Zm-66-6.88c6.14.82,64.5,8.45,77.14,5,3.21-.88,5.86-3.59,7.46-7.63,2-5,1.87-10.7-.28-14.25a11.81,11.81,0,0,0-10.48-5.61c-4.62.15-8.59,2.81-10.92,7.29a4.69,4.69,0,0,0,1.25,2.29,10.55,10.55,0,0,1,7.68-6.46,10.92,10.92,0,0,1,9.71,2.89c1.83,1.86,2.5,5.3,1.8,9.22-.78,4.36-3,8-5.77,9.31-8.85,4.2-70.57-3.69-77.13-4.54Z" fill="#221f1f"/><path d="M44.53,240V220H37.24v-2.82H54.85V220H47.56v20Z" fill="#231f20"/><path d="M77.56,217.16h3v5c0,3.84.24,7.2.24,9.09,0,7.11-3.57,9.24-8.4,9.24s-8.28-2.07-8.28-9.24c0-1.89.24-5.25.24-9.09v-5h3v5c0,4-.18,7.53-.18,9.24,0,4.29,1.5,6.27,5.22,6.27s5.28-1.92,5.28-6.27c0-1.71-.18-5.22-.18-9.24Z" fill="#231f20"/><path d="M107,240,95.83,223.73V240H92.77V220.37A12.18,12.18,0,0,0,91.09,219L93,216.59a15.84,15.84,0,0,1,5.13,5.1l8.73,12.9V217.16h3.06V240Z" fill="#231f20"/><path d="M121.75,218.06a22.35,22.35,0,0,1,7.38-1.29c6.69,0,10,4.44,10,10.74,0,6.66-2.88,13-10.41,13a31.29,31.29,0,0,1-7-.78Zm3,19.11a18,18,0,0,0,4.05.42c5.1,0,7.08-4.71,7.08-10.14,0-4.17-1.47-7.71-6.9-7.71a16.61,16.61,0,0,0-4.23.63Z" fill="#231f20"/><path d="M166.6,239.36a4.2,4.2,0,0,1-2.91,1.14c-2.28,0-3.51-1.32-4.71-4.2l-2.52-6a10.19,10.19,0,0,1-2.1.15,19.12,19.12,0,0,1-2.55-.18V240h-3V217.91a18.9,18.9,0,0,1,6.69-1.14c3.72,0,7.17,1.5,7.17,6.21a6.71,6.71,0,0,1-3.48,6.27l2.52,5.88c.81,2,1.38,2.46,2.31,2.46a2.7,2.7,0,0,0,1.71-.54Zm-14.79-11.88a19.47,19.47,0,0,0,2.64.18c2.88,0,5.1-1.53,5.1-4.53,0-2.79-1.83-3.57-4.44-3.57a9.78,9.78,0,0,0-3.3.48Z" fill="#231f20"/><path d="M189.07,240.32l-2.64-7.53h-7.68c-1,2.82-2.13,5.76-3.06,7.77l-2.67-.93c1.17-2.61,2.64-6.87,3.87-10.32l4.32-12.15,2.7-.39,8.19,22.95Zm-6.54-18.72-2.34,7c-.18.57-.48,1.41-.48,1.41h5.76Z" fill="#231f20"/><path d="M215,240V217.16h13V220h-10v7.2h8.07v2.67h-8.07V240Z" fill="#231f20"/><path d="M237.49,240V217.16h12.39V220h-9.3v6.9h7.5v2.67h-7.5v7.5h9.9V240Z" fill="#231f20"/><path d="M260.53,240V217.16h12.39V220h-9.3v6.9h7.5v2.67h-7.5v7.5h9.9V240Z" fill="#231f20"/><path d="M283.39,218.06a22.35,22.35,0,0,1,7.38-1.29c6.69,0,10,4.44,10,10.74,0,6.66-2.88,13-10.41,13a31.29,31.29,0,0,1-7-.78Zm3,19.11a18,18,0,0,0,4.05.42c5.1,0,7.08-4.71,7.08-10.14,0-4.17-1.47-7.71-6.9-7.71a16.61,16.61,0,0,0-4.23.63Z" fill="#231f20"/><path d="M348.72,239.78a14.58,14.58,0,0,1-4.71.78,16.28,16.28,0,0,1-6.06-1.2,12.59,12.59,0,0,1-5.82,1.23c-7.1,0-9-4.44-9-7.68a7.35,7.35,0,0,1,4.31-6.93,17.07,17.07,0,0,1-.17-2.49c0-3.27,1.71-6.93,5.88-6.93a4.21,4.21,0,0,1,4.58,4.44,7.87,7.87,0,0,1-1.32,4.26l-2.39-.78a7.3,7.3,0,0,0,.92-3.39,1.81,1.81,0,0,0-1.92-1.92c-2.09,0-3,2-3,4.26,0,4.95,3.42,10.11,7.75,12.75a7.07,7.07,0,0,0,1.79-5,10.18,10.18,0,0,0-1-4.38l2.64-.84a12.37,12.37,0,0,1,1.14,5.25,9.77,9.77,0,0,1-2,6.24,10,10,0,0,0,3.36.6,14.3,14.3,0,0,0,4.47-.66Zm-13.77-2a17.82,17.82,0,0,1-6.84-9.09,4.66,4.66,0,0,0-2.16,4.26c0,2.25,1.71,5.16,6.28,5.16A10.38,10.38,0,0,0,335,237.74Z" fill="#231f20"/><path d="M382.89,223.79a5.12,5.12,0,0,0,.39-1.77c0-1.41-1.44-2.31-4.14-2.31s-4.07,1.23-4.07,3c0,2.16,2.36,3.27,5.45,4.65,3.48,1.56,6.54,3.21,6.54,7s-2.85,6.24-8.22,6.24c-4,0-8.46-1.11-8.46-5.58a6.47,6.47,0,0,1,1.41-4l2.64,1.26a4,4,0,0,0-.93,2.46c0,2.43,2.76,2.88,5.41,2.88,2.9,0,4.79-1,4.79-3.18s-2.07-3.12-5.07-4.44c-3.63-1.56-6.87-3.33-6.87-7.38,0-3.72,3-5.88,7.44-5.88s7.11,2,7.11,5.1a5.39,5.39,0,0,1-.81,2.88Z" fill="#231f20"/><path d="M409.9,217.16h3v5c0,3.84.24,7.2.24,9.09,0,7.11-3.56,9.24-8.39,9.24s-8.28-2.07-8.28-9.24c0-1.89.24-5.25.24-9.09v-5h3v5c0,4-.18,7.53-.18,9.24,0,4.29,1.49,6.27,5.22,6.27s5.27-1.92,5.27-6.27c0-1.71-.17-5.22-.17-9.24Z" fill="#231f20"/><path d="M424.56,240V217.91a17.72,17.72,0,0,1,6.51-1.14c4,0,7.65,1.44,7.65,6.63s-3.06,8.76-8.34,8.76a19.13,19.13,0,0,1-2.85-.18v8Zm3-10.8a21.69,21.69,0,0,0,2.7.18c3.24,0,5.34-2,5.34-5.88,0-3.21-2-3.93-4.77-3.93a9.51,9.51,0,0,0-3.27.48Z" fill="#231f20"/><path d="M448.89,240V217.91a17.72,17.72,0,0,1,6.51-1.14c4,0,7.65,1.44,7.65,6.63s-3.06,8.76-8.34,8.76a19.13,19.13,0,0,1-2.85-.18v8Zm3-10.8a21.69,21.69,0,0,0,2.7.18c3.24,0,5.34-2,5.34-5.88,0-3.21-2-3.93-4.77-3.93a9.51,9.51,0,0,0-3.27.48Z" fill="#231f20"/><path d="M473.22,240V217.16h3.06v19.89h10.41V240Z" fill="#231f20"/><path d="M496.69,240v-9.42l-7.5-13.41h3.54l5.51,10.11,5.4-10.11h3.42l-7.35,13.41V240Z" fill="#231f20"/><path d="M546,237.38a11.74,11.74,0,0,1-8.25,3.12c-5.16,0-9.33-3.6-9.33-10.71,0-6.27,3.52-13,10.41-13,4.92,0,7.14,3.27,6.75,7.23H542.7c0-3-1.32-4.29-3.78-4.29-4.71,0-7.22,5.07-7.22,9.78,0,5.25,2.51,8,6.35,8a10,10,0,0,0,6.66-2.55Z" fill="#231f20"/><path d="M563.91,240.5c-7.56,0-9.54-6.15-9.54-11.76,0-5.82,1.87-12,9.72-12,7.29,0,9.54,6.12,9.54,11.94C573.63,234.32,571.47,240.5,563.91,240.5Zm0-3c5,0,6.39-4.35,6.39-8.88s-1.44-8.94-6.33-8.94c-5.07,0-6.36,4.35-6.36,8.88S558.91,237.53,563.94,237.53Z" fill="#231f20"/><path d="M585.33,238.7c0,1.26-.87,1.65-2,1.65s-1.89-.39-1.89-1.65c0-1.44.87-1.8,1.89-1.8S585.33,237.26,585.33,238.7Z" fill="#231f20"/></svg>